<svg xmlns="http://www.w3.org/2000/svg" xmlns:xlink="http://www.w3.org/1999/xlink" width="1080" zoomAndPan="magnify" viewBox="0 0 810 809.999993" height="1080" preserveAspectRatio="xMidYMid meet" version="1.0"><defs><clipPath id="e0924ba76b"><path d="M 405 0 C 181.324219 0 0 181.324219 0 405 C 0 628.675781 181.324219 810 405 810 C 628.675781 810 810 628.675781 810 405 C 810 181.324219 628.675781 0 405 0 Z M 405 0 " clip-rule="nonzero"/></clipPath><clipPath id="6f65680f90"><path d="M 164 117.121094 L 669.710938 117.121094 L 669.710938 693 L 164 693 Z M 164 117.121094 " clip-rule="nonzero"/></clipPath><clipPath id="ad36deb392"><path d="M 255.09375 269.582031 L 380.34375 269.582031 L 380.34375 559.832031 L 255.09375 559.832031 Z M 255.09375 269.582031 " clip-rule="nonzero"/></clipPath><clipPath id="edf678d0b1"><path d="M 81 259.691406 L 206.25 259.691406 L 206.25 549.941406 L 81 549.941406 Z M 81 259.691406 " clip-rule="nonzero"/></clipPath><clipPath id="e50d273998"><path d="M 405 259.691406 L 530.25 259.691406 L 530.25 549.941406 L 405 549.941406 Z M 405 259.691406 " clip-rule="nonzero"/></clipPath></defs><g clip-path="url(#e0924ba76b)"><rect x="-81" width="972" fill="#ffffff" y="-80.999999" height="971.999992" fill-opacity="1"/></g><path fill="#333652" d="M 249.433594 586.242188 C 249.085938 586.578125 248.777344 586.941406 248.507812 587.339844 C 248.234375 587.738281 248.003906 588.15625 247.816406 588.601562 C 247.625 589.042969 247.484375 589.5 247.386719 589.972656 C 247.285156 590.441406 247.238281 590.917969 247.234375 591.398438 C 247.230469 591.882812 247.273438 592.359375 247.367188 592.832031 C 247.457031 593.304688 247.59375 593.761719 247.777344 594.207031 C 247.960938 594.652344 248.183594 595.078125 248.453125 595.476562 C 248.71875 595.878906 249.023438 596.25 249.363281 596.589844 C 249.703125 596.929688 250.074219 597.234375 250.472656 597.5 C 250.875 597.765625 251.296875 597.992188 251.742188 598.171875 C 252.1875 598.355469 252.648438 598.492188 253.121094 598.585938 C 253.59375 598.675781 254.070312 598.71875 254.550781 598.71875 C 255.03125 598.714844 255.507812 598.664062 255.980469 598.566406 C 256.453125 598.46875 256.910156 598.324219 257.351562 598.136719 C 257.796875 597.945312 258.214844 597.714844 258.613281 597.445312 C 259.007812 597.171875 259.375 596.863281 259.710938 596.519531 C 262.84375 593.386719 265.902344 590.183594 268.878906 586.902344 C 271.855469 583.621094 274.75 580.269531 277.558594 576.847656 C 280.371094 573.425781 283.097656 569.9375 285.738281 566.378906 C 288.378906 562.824219 290.929688 559.207031 293.394531 555.523438 C 295.855469 551.84375 298.226562 548.101562 300.503906 544.304688 C 302.785156 540.503906 304.96875 536.652344 307.058594 532.75 C 309.148438 528.84375 311.140625 524.886719 313.035156 520.886719 C 314.929688 516.882812 316.726562 512.835938 318.421875 508.742188 C 320.121094 504.652344 321.714844 500.519531 323.207031 496.351562 C 324.699219 492.179688 326.089844 487.976562 327.378906 483.738281 C 328.664062 479.5 329.847656 475.234375 330.921875 470.9375 C 332 466.640625 332.972656 462.320312 333.835938 457.976562 C 334.703125 453.632812 335.457031 449.269531 336.109375 444.890625 C 336.761719 440.507812 337.300781 436.113281 337.738281 431.707031 C 338.171875 427.296875 338.496094 422.882812 338.714844 418.457031 C 338.933594 414.035156 339.042969 409.609375 339.039062 405.179688 C 339.042969 400.75 338.933594 396.324219 338.714844 391.898438 C 338.496094 387.476562 338.171875 383.058594 337.738281 378.652344 C 337.300781 374.246094 336.761719 369.851562 336.109375 365.46875 C 335.457031 361.085938 334.703125 356.726562 333.835938 352.382812 C 332.972656 348.039062 332 343.71875 330.921875 339.421875 C 329.847656 335.125 328.664062 330.859375 327.378906 326.621094 C 326.089844 322.382812 324.699219 318.175781 323.207031 314.007812 C 321.714844 309.835938 320.121094 305.707031 318.421875 301.613281 C 316.726562 297.523438 314.929688 293.476562 313.035156 289.472656 C 311.140625 285.46875 309.148438 281.515625 307.058594 277.609375 C 304.96875 273.703125 302.785156 269.851562 300.503906 266.054688 C 298.226562 262.257812 295.855469 258.515625 293.394531 254.835938 C 290.929688 251.152344 288.378906 247.535156 285.738281 243.976562 C 283.097656 240.421875 280.371094 236.933594 277.558594 233.507812 C 274.75 230.085938 271.855469 226.734375 268.878906 223.457031 C 265.902344 220.175781 262.84375 216.96875 259.710938 213.839844 C 259.375 213.496094 259.007812 213.191406 258.609375 212.921875 C 258.214844 212.652344 257.792969 212.425781 257.351562 212.238281 C 256.910156 212.054688 256.453125 211.910156 255.984375 211.816406 C 255.515625 211.71875 255.039062 211.671875 254.558594 211.667969 C 254.078125 211.667969 253.605469 211.710938 253.132812 211.804688 C 252.664062 211.894531 252.207031 212.035156 251.761719 212.214844 C 251.316406 212.398438 250.894531 212.625 250.496094 212.890625 C 250.097656 213.15625 249.730469 213.457031 249.390625 213.796875 C 249.050781 214.136719 248.746094 214.507812 248.480469 214.90625 C 248.214844 215.304688 247.992188 215.726562 247.808594 216.167969 C 247.625 216.613281 247.488281 217.070312 247.394531 217.539062 C 247.304688 218.011719 247.257812 218.488281 247.261719 218.964844 C 247.261719 219.445312 247.3125 219.921875 247.40625 220.390625 C 247.503906 220.863281 247.644531 221.316406 247.832031 221.757812 C 248.015625 222.203125 248.246094 222.621094 248.515625 223.019531 C 248.785156 223.414062 249.089844 223.78125 249.433594 224.117188 C 252.398438 227.082031 255.289062 230.113281 258.105469 233.21875 C 260.921875 236.320312 263.660156 239.492188 266.324219 242.730469 C 268.984375 245.96875 271.5625 249.269531 274.0625 252.636719 C 276.5625 256 278.976562 259.425781 281.304688 262.910156 C 283.636719 266.394531 285.878906 269.933594 288.035156 273.527344 C 290.191406 277.121094 292.257812 280.765625 294.238281 284.460938 C 296.214844 288.15625 298.101562 291.898438 299.894531 295.6875 C 301.6875 299.476562 303.386719 303.304688 304.992188 307.175781 C 306.597656 311.050781 308.105469 314.957031 309.519531 318.902344 C 310.933594 322.851562 312.25 326.828125 313.464844 330.839844 C 314.683594 334.847656 315.800781 338.886719 316.820312 342.953125 C 317.839844 347.019531 318.757812 351.105469 319.578125 355.21875 C 320.394531 359.328125 321.113281 363.457031 321.730469 367.601562 C 322.34375 371.746094 322.859375 375.90625 323.269531 380.078125 C 323.679688 384.246094 323.988281 388.425781 324.195312 392.613281 C 324.398438 396.800781 324.503906 400.988281 324.503906 405.179688 C 324.503906 409.371094 324.398438 413.558594 324.195312 417.746094 C 323.988281 421.929688 323.679688 426.109375 323.269531 430.28125 C 322.859375 434.453125 322.34375 438.609375 321.730469 442.757812 C 321.113281 446.902344 320.394531 451.03125 319.578125 455.140625 C 318.757812 459.253906 317.839844 463.339844 316.820312 467.40625 C 315.800781 471.472656 314.683594 475.507812 313.464844 479.519531 C 312.25 483.53125 310.933594 487.507812 309.519531 491.453125 C 308.105469 495.398438 306.597656 499.308594 304.992188 503.179688 C 303.386719 507.050781 301.6875 510.882812 299.894531 514.671875 C 298.101562 518.457031 296.214844 522.199219 294.238281 525.894531 C 292.257812 529.59375 290.191406 533.238281 288.035156 536.832031 C 285.878906 540.425781 283.636719 543.964844 281.304688 547.449219 C 278.976562 550.933594 276.5625 554.355469 274.0625 557.722656 C 271.5625 561.085938 268.984375 564.390625 266.324219 567.628906 C 263.660156 570.867188 260.921875 574.039062 258.105469 577.140625 C 255.289062 580.246094 252.398438 583.277344 249.433594 586.238281 Z M 249.433594 586.242188 " fill-opacity="1" fill-rule="nonzero"/><path fill="#333652" d="M 218.394531 244.875 C 218.054688 245.210938 217.753906 245.578125 217.488281 245.976562 C 217.222656 246.371094 217 246.792969 216.816406 247.230469 C 216.636719 247.671875 216.496094 248.128906 216.402344 248.59375 C 216.3125 249.0625 216.265625 249.535156 216.265625 250.011719 C 216.265625 250.492188 216.3125 250.964844 216.402344 251.429688 C 216.496094 251.898438 216.636719 252.355469 216.816406 252.792969 C 217 253.234375 217.222656 253.65625 217.488281 254.050781 C 217.753906 254.449219 218.054688 254.816406 218.394531 255.152344 C 220.851562 257.605469 223.246094 260.121094 225.582031 262.691406 C 227.914062 265.265625 230.183594 267.890625 232.390625 270.574219 C 234.59375 273.257812 236.730469 275.996094 238.800781 278.78125 C 240.871094 281.570312 242.875 284.410156 244.804688 287.296875 C 246.734375 290.183594 248.59375 293.113281 250.382812 296.09375 C 252.167969 299.070312 253.882812 302.089844 255.519531 305.152344 C 257.15625 308.214844 258.71875 311.316406 260.207031 314.453125 C 261.691406 317.59375 263.101562 320.765625 264.429688 323.976562 C 265.761719 327.183594 267.011719 330.421875 268.183594 333.691406 C 269.355469 336.960938 270.445312 340.257812 271.453125 343.582031 C 272.460938 346.902344 273.386719 350.25 274.234375 353.617188 C 275.078125 356.988281 275.839844 360.375 276.515625 363.78125 C 277.195312 367.1875 277.789062 370.609375 278.300781 374.042969 C 278.808594 377.476562 279.234375 380.921875 279.574219 384.378906 C 279.917969 387.835938 280.171875 391.296875 280.34375 394.765625 C 280.511719 398.234375 280.597656 401.707031 280.597656 405.179688 C 280.597656 408.652344 280.511719 412.125 280.34375 415.59375 C 280.171875 419.0625 279.917969 422.523438 279.574219 425.980469 C 279.234375 429.4375 278.808594 432.882812 278.300781 436.316406 C 277.789062 439.75 277.195312 443.171875 276.515625 446.578125 C 275.839844 449.984375 275.078125 453.371094 274.234375 456.742188 C 273.386719 460.109375 272.460938 463.457031 271.453125 466.777344 C 270.445312 470.101562 269.355469 473.398438 268.183594 476.667969 C 267.011719 479.9375 265.761719 483.175781 264.429688 486.382812 C 263.101562 489.59375 261.691406 492.765625 260.207031 495.90625 C 258.71875 499.042969 257.15625 502.144531 255.519531 505.207031 C 253.882812 508.269531 252.167969 511.289062 250.382812 514.265625 C 248.59375 517.246094 246.734375 520.175781 244.804688 523.0625 C 242.875 525.949219 240.871094 528.789062 238.800781 531.578125 C 236.730469 534.363281 234.59375 537.101562 232.390625 539.785156 C 230.183594 542.46875 227.914062 545.09375 225.582031 547.667969 C 223.246094 550.238281 220.851562 552.753906 218.394531 555.207031 C 218.050781 555.542969 217.746094 555.910156 217.476562 556.308594 C 217.207031 556.703125 216.976562 557.125 216.792969 557.566406 C 216.605469 558.007812 216.464844 558.464844 216.367188 558.933594 C 216.273438 559.402344 216.222656 559.878906 216.222656 560.359375 C 216.21875 560.839844 216.265625 561.3125 216.355469 561.785156 C 216.449219 562.253906 216.585938 562.710938 216.769531 563.15625 C 216.949219 563.601562 217.175781 564.019531 217.441406 564.421875 C 217.707031 564.820312 218.011719 565.1875 218.351562 565.527344 C 218.6875 565.867188 219.058594 566.171875 219.457031 566.4375 C 219.855469 566.703125 220.277344 566.925781 220.722656 567.109375 C 221.164062 567.292969 221.625 567.429688 222.09375 567.523438 C 222.566406 567.613281 223.039062 567.660156 223.519531 567.65625 C 224 567.65625 224.476562 567.605469 224.945312 567.511719 C 225.414062 567.414062 225.871094 567.273438 226.3125 567.085938 C 226.757812 566.898438 227.175781 566.671875 227.574219 566.402344 C 227.96875 566.132812 228.335938 565.828125 228.671875 565.484375 C 231.296875 562.863281 233.859375 560.175781 236.351562 557.429688 C 238.847656 554.679688 241.269531 551.875 243.625 549.003906 C 245.984375 546.136719 248.265625 543.214844 250.480469 540.234375 C 252.691406 537.257812 254.828125 534.222656 256.890625 531.140625 C 258.953125 528.054688 260.941406 524.921875 262.851562 521.738281 C 264.757812 518.558594 266.589844 515.332031 268.339844 512.058594 C 270.089844 508.785156 271.761719 505.472656 273.347656 502.121094 C 274.9375 498.765625 276.441406 495.375 277.863281 491.945312 C 279.28125 488.519531 280.617188 485.058594 281.871094 481.5625 C 283.121094 478.070312 284.285156 474.546875 285.363281 470.996094 C 286.441406 467.445312 287.433594 463.871094 288.335938 460.273438 C 289.238281 456.671875 290.050781 453.054688 290.773438 449.414062 C 291.5 445.773438 292.132812 442.121094 292.679688 438.449219 C 293.222656 434.777344 293.679688 431.097656 294.042969 427.402344 C 294.40625 423.710938 294.679688 420.011719 294.863281 416.304688 C 295.042969 412.597656 295.136719 408.890625 295.136719 405.179688 C 295.136719 401.46875 295.042969 397.761719 294.863281 394.054688 C 294.679688 390.347656 294.40625 386.648438 294.042969 382.957031 C 293.679688 379.261719 293.222656 375.582031 292.679688 371.910156 C 292.132812 368.238281 291.5 364.585938 290.773438 360.945312 C 290.050781 357.304688 289.238281 353.6875 288.335938 350.085938 C 287.433594 346.488281 286.441406 342.914062 285.363281 339.363281 C 284.285156 335.8125 283.121094 332.289062 281.871094 328.796875 C 280.617188 325.300781 279.28125 321.839844 277.863281 318.414062 C 276.441406 314.984375 274.9375 311.59375 273.347656 308.238281 C 271.761719 304.886719 270.089844 301.574219 268.339844 298.300781 C 266.589844 295.027344 264.757812 291.800781 262.851562 288.621094 C 260.941406 285.4375 258.953125 282.304688 256.890625 279.21875 C 254.828125 276.136719 252.691406 273.101562 250.480469 270.125 C 248.265625 267.144531 245.984375 264.222656 243.625 261.355469 C 241.269531 258.484375 238.847656 255.679688 236.351562 252.929688 C 233.859375 250.183594 231.296875 247.496094 228.671875 244.875 C 228.335938 244.535156 227.96875 244.234375 227.570312 243.96875 C 227.175781 243.707031 226.753906 243.480469 226.316406 243.300781 C 225.875 243.117188 225.417969 242.976562 224.949219 242.886719 C 224.484375 242.792969 224.011719 242.746094 223.53125 242.746094 C 223.054688 242.746094 222.582031 242.792969 222.113281 242.886719 C 221.648438 242.980469 221.191406 243.117188 220.75 243.300781 C 220.308594 243.480469 219.890625 243.707031 219.496094 243.96875 C 219.097656 244.234375 218.730469 244.535156 218.394531 244.875 Z M 218.394531 244.875 " fill-opacity="1" fill-rule="nonzero"/><path fill="#333652" d="M 187.355469 275.910156 C 187.019531 276.246094 186.71875 276.613281 186.453125 277.011719 C 186.1875 277.40625 185.960938 277.824219 185.78125 278.265625 C 185.597656 278.707031 185.460938 279.160156 185.367188 279.628906 C 185.273438 280.097656 185.226562 280.570312 185.226562 281.046875 C 185.226562 281.523438 185.273438 281.996094 185.367188 282.464844 C 185.460938 282.933594 185.597656 283.386719 185.78125 283.828125 C 185.960938 284.269531 186.1875 284.6875 186.453125 285.085938 C 186.71875 285.480469 187.019531 285.847656 187.355469 286.1875 C 189.304688 288.132812 191.207031 290.125 193.054688 292.167969 C 194.90625 294.207031 196.707031 296.289062 198.457031 298.417969 C 200.207031 300.546875 201.902344 302.71875 203.542969 304.929688 C 205.183594 307.140625 206.773438 309.390625 208.304688 311.679688 C 209.835938 313.96875 211.308594 316.296875 212.726562 318.660156 C 214.144531 321.019531 215.503906 323.414062 216.800781 325.84375 C 218.101562 328.273438 219.339844 330.734375 220.519531 333.222656 C 221.699219 335.710938 222.816406 338.230469 223.871094 340.773438 C 224.925781 343.316406 225.917969 345.886719 226.847656 348.480469 C 227.773438 351.074219 228.640625 353.6875 229.441406 356.324219 C 230.238281 358.960938 230.976562 361.613281 231.644531 364.285156 C 232.316406 366.957031 232.917969 369.644531 233.457031 372.34375 C 233.996094 375.046875 234.464844 377.761719 234.871094 380.484375 C 235.273438 383.210938 235.613281 385.941406 235.882812 388.683594 C 236.152344 391.425781 236.355469 394.171875 236.492188 396.921875 C 236.625 399.671875 236.695312 402.425781 236.695312 405.179688 C 236.695312 407.933594 236.625 410.6875 236.492188 413.441406 C 236.355469 416.191406 236.152344 418.9375 235.882812 421.679688 C 235.613281 424.417969 235.273438 427.152344 234.871094 429.878906 C 234.464844 432.601562 233.996094 435.316406 233.457031 438.015625 C 232.917969 440.71875 232.316406 443.40625 231.644531 446.078125 C 230.976562 448.75 230.238281 451.402344 229.441406 454.039062 C 228.640625 456.671875 227.773438 459.289062 226.847656 461.882812 C 225.917969 464.472656 224.925781 467.042969 223.871094 469.589844 C 222.816406 472.132812 221.699219 474.648438 220.519531 477.140625 C 219.339844 479.628906 218.101562 482.089844 216.800781 484.515625 C 215.503906 486.945312 214.144531 489.339844 212.726562 491.703125 C 211.308594 494.066406 209.835938 496.390625 208.304688 498.679688 C 206.773438 500.96875 205.183594 503.222656 203.542969 505.433594 C 201.902344 507.644531 200.207031 509.8125 198.457031 511.941406 C 196.707031 514.070312 194.90625 516.15625 193.054688 518.195312 C 191.207031 520.234375 189.304688 522.226562 187.355469 524.175781 C 187.023438 524.511719 186.726562 524.878906 186.464844 525.277344 C 186.203125 525.675781 185.984375 526.09375 185.804688 526.53125 C 185.625 526.972656 185.492188 527.425781 185.402344 527.890625 C 185.3125 528.355469 185.269531 528.828125 185.269531 529.300781 C 185.273438 529.777344 185.320312 530.246094 185.414062 530.710938 C 185.507812 531.175781 185.644531 531.628906 185.828125 532.066406 C 186.011719 532.503906 186.234375 532.921875 186.5 533.316406 C 186.761719 533.710938 187.0625 534.074219 187.398438 534.410156 C 187.734375 534.746094 188.097656 535.046875 188.492188 535.308594 C 188.886719 535.574219 189.304688 535.796875 189.742188 535.980469 C 190.179688 536.164062 190.632812 536.300781 191.097656 536.394531 C 191.5625 536.488281 192.035156 536.535156 192.507812 536.539062 C 192.984375 536.539062 193.453125 536.496094 193.917969 536.40625 C 194.386719 536.316406 194.839844 536.183594 195.277344 536.003906 C 195.71875 535.824219 196.136719 535.605469 196.53125 535.34375 C 196.929688 535.082031 197.296875 534.785156 197.636719 534.453125 C 199.753906 532.339844 201.816406 530.171875 203.828125 527.957031 C 205.839844 525.742188 207.792969 523.476562 209.695312 521.164062 C 211.59375 518.851562 213.4375 516.492188 215.21875 514.089844 C 217.003906 511.6875 218.726562 509.242188 220.390625 506.757812 C 222.054688 504.269531 223.65625 501.742188 225.195312 499.175781 C 226.734375 496.609375 228.210938 494.007812 229.625 491.367188 C 231.035156 488.730469 232.382812 486.058594 233.660156 483.355469 C 234.941406 480.648438 236.15625 477.914062 237.300781 475.148438 C 238.449219 472.386719 239.523438 469.59375 240.535156 466.777344 C 241.542969 463.960938 242.480469 461.121094 243.351562 458.257812 C 244.21875 455.394531 245.019531 452.511719 245.746094 449.609375 C 246.476562 446.707031 247.128906 443.785156 247.714844 440.851562 C 248.300781 437.917969 248.8125 434.96875 249.25 432.007812 C 249.691406 429.050781 250.054688 426.082031 250.351562 423.101562 C 250.644531 420.125 250.863281 417.140625 251.011719 414.152344 C 251.15625 411.164062 251.230469 408.171875 251.230469 405.179688 C 251.230469 402.1875 251.15625 399.195312 251.011719 396.207031 C 250.863281 393.21875 250.644531 390.234375 250.351562 387.257812 C 250.054688 384.28125 249.691406 381.3125 249.25 378.351562 C 248.8125 375.390625 248.300781 372.445312 247.714844 369.507812 C 247.128906 366.574219 246.476562 363.65625 245.746094 360.753906 C 245.019531 357.851562 244.21875 354.96875 243.351562 352.105469 C 242.480469 349.242188 241.542969 346.398438 240.535156 343.582031 C 239.523438 340.765625 238.449219 337.976562 237.300781 335.210938 C 236.15625 332.445312 234.941406 329.710938 233.660156 327.007812 C 232.382812 324.300781 231.035156 321.628906 229.625 318.992188 C 228.210938 316.351562 226.734375 313.75 225.195312 311.183594 C 223.65625 308.617188 222.054688 306.09375 220.390625 303.605469 C 218.726562 301.117188 217.003906 298.671875 215.21875 296.269531 C 213.4375 293.867188 211.59375 291.507812 209.695312 289.195312 C 207.792969 286.882812 205.839844 284.621094 203.828125 282.402344 C 201.816406 280.1875 199.753906 278.023438 197.636719 275.90625 C 197.296875 275.570312 196.929688 275.269531 196.535156 275.003906 C 196.136719 274.738281 195.71875 274.515625 195.277344 274.332031 C 194.835938 274.148438 194.382812 274.011719 193.914062 273.917969 C 193.445312 273.824219 192.972656 273.78125 192.496094 273.78125 C 192.019531 273.78125 191.546875 273.824219 191.078125 273.917969 C 190.609375 274.011719 190.15625 274.148438 189.714844 274.332031 C 189.273438 274.515625 188.855469 274.738281 188.457031 275.003906 C 188.058594 275.269531 187.691406 275.570312 187.355469 275.910156 Z M 187.355469 275.910156 " fill-opacity="1" fill-rule="nonzero"/><path fill="#333652" d="M 207.328125 405.179688 C 207.339844 400.628906 207.125 396.085938 206.6875 391.554688 C 206.25 387.023438 205.585938 382.527344 204.703125 378.058594 C 203.820312 373.59375 202.71875 369.183594 201.398438 364.824219 C 200.078125 360.46875 198.546875 356.1875 196.804688 351.980469 C 195.0625 347.777344 193.113281 343.667969 190.964844 339.65625 C 188.8125 335.640625 186.46875 331.746094 183.933594 327.964844 C 181.398438 324.183594 178.683594 320.535156 175.785156 317.023438 C 172.890625 313.511719 169.828125 310.152344 166.597656 306.941406 C 166.261719 306.601562 165.894531 306.292969 165.496094 306.023438 C 165.101562 305.753906 164.679688 305.527344 164.238281 305.339844 C 163.796875 305.15625 163.339844 305.015625 162.871094 304.917969 C 162.402344 304.820312 161.925781 304.773438 161.445312 304.769531 C 160.964844 304.769531 160.492188 304.8125 160.019531 304.90625 C 159.550781 305 159.089844 305.136719 158.648438 305.320312 C 158.203125 305.5 157.78125 305.726562 157.382812 305.992188 C 156.984375 306.257812 156.617188 306.558594 156.277344 306.898438 C 155.9375 307.238281 155.632812 307.609375 155.367188 308.007812 C 155.101562 308.40625 154.878906 308.828125 154.695312 309.269531 C 154.511719 309.714844 154.375 310.171875 154.28125 310.644531 C 154.191406 311.113281 154.144531 311.589844 154.148438 312.070312 C 154.148438 312.546875 154.199219 313.023438 154.292969 313.492188 C 154.390625 313.964844 154.53125 314.417969 154.71875 314.859375 C 154.902344 315.304688 155.132812 315.722656 155.402344 316.121094 C 155.671875 316.515625 155.976562 316.882812 156.316406 317.21875 C 157.757812 318.660156 159.164062 320.132812 160.53125 321.640625 C 161.902344 323.148438 163.230469 324.6875 164.523438 326.261719 C 165.816406 327.835938 167.070312 329.4375 168.285156 331.074219 C 169.496094 332.710938 170.671875 334.371094 171.804688 336.066406 C 172.933594 337.757812 174.023438 339.476562 175.074219 341.222656 C 176.121094 342.96875 177.125 344.738281 178.085938 346.535156 C 179.046875 348.332031 179.960938 350.148438 180.832031 351.988281 C 181.703125 353.828125 182.53125 355.691406 183.308594 357.570312 C 184.089844 359.453125 184.824219 361.351562 185.511719 363.265625 C 186.195312 365.183594 186.835938 367.117188 187.425781 369.066406 C 188.019531 371.011719 188.5625 372.976562 189.058594 374.949219 C 189.550781 376.925781 190 378.910156 190.394531 380.910156 C 190.792969 382.90625 191.140625 384.910156 191.441406 386.925781 C 191.742188 388.9375 191.988281 390.960938 192.191406 392.984375 C 192.390625 395.011719 192.539062 397.042969 192.640625 399.074219 C 192.738281 401.109375 192.789062 403.144531 192.789062 405.179688 C 192.789062 407.214844 192.738281 409.25 192.640625 411.285156 C 192.539062 413.320312 192.390625 415.347656 192.191406 417.375 C 191.988281 419.402344 191.742188 421.421875 191.441406 423.4375 C 191.140625 425.449219 190.792969 427.457031 190.394531 429.453125 C 190 431.449219 189.550781 433.433594 189.058594 435.410156 C 188.5625 437.386719 188.019531 439.347656 187.425781 441.296875 C 186.835938 443.242188 186.195312 445.175781 185.511719 447.09375 C 184.824219 449.011719 184.089844 450.910156 183.308594 452.789062 C 182.53125 454.671875 181.703125 456.53125 180.832031 458.371094 C 179.960938 460.210938 179.046875 462.03125 178.085938 463.824219 C 177.125 465.621094 176.121094 467.390625 175.074219 469.136719 C 174.023438 470.882812 172.933594 472.601562 171.804688 474.296875 C 170.671875 475.988281 169.496094 477.652344 168.285156 479.285156 C 167.070312 480.921875 165.816406 482.523438 164.523438 484.097656 C 163.230469 485.671875 161.902344 487.210938 160.53125 488.71875 C 159.164062 490.226562 157.757812 491.703125 156.316406 493.140625 C 155.984375 493.480469 155.6875 493.847656 155.425781 494.242188 C 155.167969 494.640625 154.945312 495.058594 154.769531 495.496094 C 154.589844 495.9375 154.453125 496.390625 154.363281 496.855469 C 154.273438 497.320312 154.230469 497.792969 154.230469 498.265625 C 154.234375 498.742188 154.28125 499.210938 154.375 499.675781 C 154.46875 500.140625 154.609375 500.59375 154.792969 501.03125 C 154.972656 501.46875 155.195312 501.886719 155.460938 502.28125 C 155.726562 502.675781 156.023438 503.039062 156.359375 503.375 C 156.695312 503.710938 157.0625 504.011719 157.457031 504.277344 C 157.851562 504.539062 158.265625 504.761719 158.707031 504.945312 C 159.144531 505.128906 159.59375 505.265625 160.0625 505.359375 C 160.527344 505.453125 160.996094 505.503906 161.46875 505.503906 C 161.945312 505.507812 162.414062 505.460938 162.882812 505.371094 C 163.347656 505.28125 163.800781 505.148438 164.242188 504.96875 C 164.679688 504.789062 165.097656 504.570312 165.496094 504.308594 C 165.890625 504.046875 166.257812 503.75 166.597656 503.417969 C 169.828125 500.210938 172.890625 496.847656 175.785156 493.335938 C 178.683594 489.824219 181.398438 486.175781 183.933594 482.394531 C 186.46875 478.617188 188.8125 474.71875 190.964844 470.707031 C 193.113281 466.691406 195.058594 462.585938 196.804688 458.378906 C 198.546875 454.171875 200.078125 449.890625 201.398438 445.535156 C 202.71875 441.179688 203.820312 436.765625 204.703125 432.300781 C 205.585938 427.835938 206.25 423.335938 206.6875 418.804688 C 207.125 414.273438 207.339844 409.734375 207.328125 405.179688 Z M 207.328125 405.179688 " fill-opacity="1" fill-rule="nonzero"/><path fill="#333652" d="M 135.558594 337.976562 C 135.21875 337.648438 134.851562 337.359375 134.457031 337.109375 C 134.058594 336.855469 133.644531 336.640625 133.207031 336.46875 C 132.769531 336.296875 132.320312 336.167969 131.855469 336.082031 C 131.394531 335.996094 130.925781 335.957031 130.457031 335.964844 C 129.988281 335.96875 129.523438 336.019531 129.0625 336.113281 C 128.601562 336.210938 128.152344 336.347656 127.722656 336.53125 C 127.289062 336.714844 126.875 336.9375 126.484375 337.199219 C 126.09375 337.460938 125.734375 337.757812 125.402344 338.089844 C 125.070312 338.421875 124.769531 338.785156 124.507812 339.175781 C 124.246094 339.5625 124.023438 339.976562 123.839844 340.410156 C 123.660156 340.84375 123.519531 341.289062 123.421875 341.75 C 123.328125 342.210938 123.277344 342.675781 123.269531 343.144531 C 123.265625 343.613281 123.304688 344.082031 123.390625 344.542969 C 123.476562 345.007812 123.605469 345.457031 123.777344 345.894531 C 123.949219 346.332031 124.160156 346.746094 124.414062 347.144531 C 124.667969 347.539062 124.957031 347.90625 125.28125 348.25 C 126.214844 349.179688 127.121094 350.132812 128.007812 351.109375 C 128.894531 352.085938 129.753906 353.082031 130.589844 354.101562 C 131.429688 355.117188 132.238281 356.15625 133.023438 357.214844 C 133.8125 358.273438 134.570312 359.347656 135.304688 360.445312 C 136.035156 361.539062 136.742188 362.652344 137.417969 363.78125 C 138.097656 364.914062 138.746094 366.058594 139.367188 367.21875 C 139.992188 368.382812 140.582031 369.558594 141.148438 370.75 C 141.710938 371.941406 142.246094 373.144531 142.75 374.363281 C 143.253906 375.578125 143.730469 376.808594 144.175781 378.050781 C 144.617188 379.289062 145.03125 380.539062 145.414062 381.800781 C 145.796875 383.0625 146.148438 384.332031 146.46875 385.609375 C 146.789062 386.890625 147.078125 388.175781 147.335938 389.464844 C 147.59375 390.757812 147.820312 392.058594 148.011719 393.359375 C 148.207031 394.664062 148.367188 395.972656 148.496094 397.28125 C 148.625 398.59375 148.722656 399.910156 148.789062 401.222656 C 148.851562 402.539062 148.886719 403.859375 148.886719 405.175781 C 148.886719 406.492188 148.851562 407.808594 148.789062 409.125 C 148.722656 410.441406 148.625 411.757812 148.496094 413.066406 C 148.367188 414.378906 148.207031 415.6875 148.011719 416.992188 C 147.820312 418.292969 147.59375 419.589844 147.335938 420.882812 C 147.078125 422.175781 146.789062 423.460938 146.46875 424.738281 C 146.148438 426.019531 145.796875 427.289062 145.414062 428.550781 C 145.03125 429.808594 144.617188 431.0625 144.175781 432.300781 C 143.730469 433.542969 143.253906 434.769531 142.75 435.988281 C 142.246094 437.207031 141.710938 438.410156 141.148438 439.601562 C 140.582031 440.792969 139.992188 441.96875 139.367188 443.128906 C 138.746094 444.292969 138.097656 445.4375 137.417969 446.566406 C 136.742188 447.699219 136.035156 448.8125 135.304688 449.90625 C 134.570312 451 133.8125 452.078125 133.023438 453.136719 C 132.238281 454.195312 131.429688 455.234375 130.589844 456.25 C 129.753906 457.269531 128.894531 458.265625 128.007812 459.242188 C 127.121094 460.21875 126.214844 461.171875 125.28125 462.101562 C 124.949219 462.441406 124.652344 462.808594 124.390625 463.207031 C 124.128906 463.601562 123.910156 464.019531 123.730469 464.460938 C 123.550781 464.898438 123.417969 465.351562 123.328125 465.816406 C 123.238281 466.285156 123.191406 466.753906 123.195312 467.230469 C 123.195312 467.703125 123.246094 468.171875 123.339844 468.640625 C 123.433594 469.105469 123.570312 469.554688 123.753906 469.996094 C 123.9375 470.433594 124.160156 470.847656 124.421875 471.242188 C 124.6875 471.636719 124.988281 472.003906 125.324219 472.339844 C 125.660156 472.671875 126.023438 472.972656 126.417969 473.238281 C 126.8125 473.5 127.230469 473.726562 127.667969 473.90625 C 128.105469 474.089844 128.558594 474.230469 129.023438 474.324219 C 129.488281 474.417969 129.957031 474.464844 130.433594 474.464844 C 130.90625 474.46875 131.378906 474.425781 131.84375 474.335938 C 132.308594 474.246094 132.761719 474.109375 133.203125 473.929688 C 133.644531 473.75 134.0625 473.53125 134.457031 473.269531 C 134.855469 473.011719 135.222656 472.714844 135.558594 472.378906 C 136.660156 471.28125 137.734375 470.15625 138.78125 469.003906 C 139.824219 467.851562 140.839844 466.675781 141.828125 465.472656 C 142.816406 464.269531 143.773438 463.042969 144.703125 461.796875 C 145.628906 460.546875 146.527344 459.273438 147.390625 457.980469 C 148.253906 456.6875 149.089844 455.375 149.886719 454.039062 C 150.6875 452.707031 151.457031 451.355469 152.191406 449.980469 C 152.921875 448.609375 153.625 447.222656 154.289062 445.816406 C 154.953125 444.410156 155.585938 442.988281 156.179688 441.550781 C 156.777344 440.113281 157.335938 438.664062 157.863281 437.199219 C 158.386719 435.734375 158.875 434.257812 159.328125 432.769531 C 159.777344 431.277344 160.195312 429.78125 160.570312 428.273438 C 160.949219 426.761719 161.292969 425.246094 161.59375 423.71875 C 161.898438 422.195312 162.164062 420.660156 162.394531 419.121094 C 162.621094 417.582031 162.8125 416.039062 162.964844 414.492188 C 163.117188 412.945312 163.230469 411.394531 163.308594 409.839844 C 163.386719 408.285156 163.421875 406.730469 163.421875 405.175781 C 163.421875 403.617188 163.386719 402.0625 163.308594 400.511719 C 163.230469 398.957031 163.117188 397.40625 162.964844 395.859375 C 162.8125 394.308594 162.621094 392.765625 162.394531 391.226562 C 162.164062 389.6875 161.898438 388.15625 161.59375 386.628906 C 161.292969 385.105469 160.949219 383.585938 160.570312 382.078125 C 160.195312 380.570312 159.777344 379.070312 159.328125 377.582031 C 158.875 376.09375 158.386719 374.617188 157.863281 373.152344 C 157.335938 371.6875 156.777344 370.234375 156.179688 368.800781 C 155.585938 367.363281 154.953125 365.941406 154.289062 364.535156 C 153.625 363.128906 152.921875 361.738281 152.191406 360.367188 C 151.457031 358.996094 150.6875 357.644531 149.886719 356.308594 C 149.089844 354.976562 148.253906 353.660156 147.390625 352.367188 C 146.527344 351.074219 145.628906 349.804688 144.703125 348.554688 C 143.773438 347.304688 142.816406 346.078125 141.828125 344.878906 C 140.839844 343.675781 139.824219 342.5 138.78125 341.347656 C 137.734375 340.195312 136.660156 339.066406 135.558594 337.96875 Z M 135.558594 337.976562 " fill-opacity="1" fill-rule="nonzero"/><path fill="#333652" d="M 94.25 369.007812 C 93.910156 369.34375 93.609375 369.710938 93.34375 370.109375 C 93.078125 370.507812 92.855469 370.925781 92.671875 371.367188 C 92.488281 371.808594 92.351562 372.261719 92.257812 372.730469 C 92.164062 373.199219 92.121094 373.667969 92.121094 374.148438 C 92.121094 374.625 92.164062 375.097656 92.257812 375.566406 C 92.351562 376.03125 92.488281 376.488281 92.671875 376.929688 C 92.855469 377.371094 93.078125 377.789062 93.34375 378.183594 C 93.609375 378.582031 93.910156 378.949219 94.25 379.285156 C 95.097656 380.132812 95.902344 381.019531 96.664062 381.949219 C 97.425781 382.875 98.140625 383.835938 98.808594 384.832031 C 99.472656 385.832031 100.089844 386.859375 100.65625 387.914062 C 101.222656 388.972656 101.734375 390.054688 102.195312 391.164062 C 102.65625 392.273438 103.058594 393.402344 103.40625 394.546875 C 103.753906 395.695312 104.046875 396.859375 104.28125 398.035156 C 104.515625 399.210938 104.691406 400.394531 104.808594 401.589844 C 104.925781 402.785156 104.984375 403.980469 104.984375 405.179688 C 104.984375 406.378906 104.925781 407.578125 104.808594 408.769531 C 104.691406 409.964844 104.515625 411.148438 104.28125 412.324219 C 104.046875 413.503906 103.753906 414.664062 103.40625 415.8125 C 103.058594 416.960938 102.65625 418.085938 102.195312 419.195312 C 101.734375 420.304688 101.222656 421.386719 100.65625 422.445312 C 100.089844 423.503906 99.472656 424.53125 98.808594 425.527344 C 98.140625 426.523438 97.425781 427.484375 96.664062 428.414062 C 95.902344 429.339844 95.097656 430.226562 94.25 431.074219 C 93.914062 431.414062 93.617188 431.78125 93.359375 432.175781 C 93.097656 432.574219 92.875 432.992188 92.699219 433.429688 C 92.519531 433.871094 92.382812 434.324219 92.292969 434.789062 C 92.203125 435.253906 92.160156 435.726562 92.160156 436.199219 C 92.164062 436.675781 92.210938 437.144531 92.304688 437.609375 C 92.398438 438.078125 92.539062 438.527344 92.71875 438.964844 C 92.902344 439.40625 93.125 439.820312 93.390625 440.214844 C 93.65625 440.609375 93.953125 440.972656 94.289062 441.308594 C 94.625 441.644531 94.992188 441.945312 95.386719 442.210938 C 95.78125 442.472656 96.195312 442.699219 96.636719 442.878906 C 97.074219 443.0625 97.523438 443.199219 97.992188 443.292969 C 98.457031 443.390625 98.925781 443.4375 99.402344 443.4375 C 99.875 443.441406 100.34375 443.398438 100.8125 443.304688 C 101.277344 443.214844 101.730469 443.082031 102.171875 442.902344 C 102.609375 442.722656 103.027344 442.503906 103.425781 442.242188 C 103.820312 441.980469 104.1875 441.683594 104.527344 441.351562 C 105.714844 440.167969 106.839844 438.929688 107.902344 437.632812 C 108.964844 436.339844 109.964844 434.996094 110.894531 433.601562 C 111.828125 432.210938 112.6875 430.773438 113.476562 429.296875 C 114.269531 427.820312 114.984375 426.304688 115.625 424.757812 C 116.269531 423.210938 116.832031 421.632812 117.320312 420.03125 C 117.804688 418.429688 118.210938 416.804688 118.539062 415.160156 C 118.867188 413.515625 119.113281 411.863281 119.277344 410.195312 C 119.441406 408.527344 119.523438 406.855469 119.523438 405.179688 C 119.523438 403.503906 119.441406 401.832031 119.277344 400.164062 C 119.113281 398.496094 118.867188 396.839844 118.539062 395.199219 C 118.210938 393.554688 117.804688 391.929688 117.320312 390.328125 C 116.832031 388.726562 116.269531 387.148438 115.625 385.601562 C 114.984375 384.054688 114.269531 382.539062 113.476562 381.0625 C 112.6875 379.585938 111.828125 378.148438 110.894531 376.757812 C 109.964844 375.363281 108.964844 374.019531 107.902344 372.726562 C 106.839844 371.429688 105.714844 370.191406 104.527344 369.007812 C 104.191406 368.667969 103.824219 368.367188 103.425781 368.101562 C 103.03125 367.839844 102.609375 367.613281 102.167969 367.433594 C 101.726562 367.25 101.273438 367.113281 100.804688 367.019531 C 100.335938 366.925781 99.863281 366.878906 99.386719 366.878906 C 98.910156 366.878906 98.4375 366.925781 97.96875 367.019531 C 97.5 367.113281 97.046875 367.25 96.605469 367.433594 C 96.164062 367.613281 95.746094 367.839844 95.351562 368.105469 C 94.953125 368.371094 94.585938 368.671875 94.25 369.007812 Z M 94.25 369.007812 " fill-opacity="1" fill-rule="nonzero"/><g clip-path="url(#6f65680f90)"><path fill="#333652" d="M 663.011719 151.019531 L 532.234375 139.875 C 532.167969 139.875 532.101562 139.875 532.035156 139.871094 C 531.917969 139.863281 531.804688 139.859375 531.6875 139.859375 C 531.546875 139.859375 531.410156 139.859375 531.269531 139.867188 C 531.128906 139.875 531.027344 139.882812 530.90625 139.894531 C 530.785156 139.90625 530.644531 139.925781 530.511719 139.945312 C 530.4375 139.957031 530.359375 139.960938 530.285156 139.976562 L 410.660156 162.375 L 384.292969 146.214844 L 407.980469 131.953125 C 408.65625 131.542969 409.25 131.039062 409.765625 130.4375 C 410.277344 129.832031 410.679688 129.164062 410.972656 128.429688 C 411.269531 127.695312 411.4375 126.933594 411.484375 126.144531 C 411.53125 125.355469 411.449219 124.578125 411.242188 123.816406 C 411.03125 123.050781 410.710938 122.34375 410.269531 121.683594 C 409.828125 121.027344 409.296875 120.457031 408.671875 119.972656 C 408.042969 119.488281 407.355469 119.117188 406.609375 118.859375 C 405.863281 118.601562 405.09375 118.464844 404.300781 118.457031 L 305.066406 117.457031 C 303.882812 117.4375 302.761719 117.691406 301.707031 118.226562 C 300.648438 118.757812 299.78125 119.507812 299.09375 120.472656 C 298.402344 121.433594 297.972656 122.496094 297.800781 123.664062 C 297.628906 124.832031 297.734375 125.976562 298.117188 127.089844 L 316.355469 180.027344 L 170.25 207.386719 C 169.835938 207.464844 169.429688 207.578125 169.035156 207.722656 C 168.640625 207.871094 168.261719 208.050781 167.898438 208.265625 C 167.535156 208.476562 167.195312 208.722656 166.875 208.992188 C 166.550781 209.265625 166.257812 209.566406 165.988281 209.886719 C 165.71875 210.210938 165.480469 210.558594 165.273438 210.921875 C 165.0625 211.289062 164.886719 211.667969 164.742188 212.066406 C 164.601562 212.460938 164.492188 212.867188 164.421875 213.28125 C 164.347656 213.695312 164.3125 214.113281 164.3125 214.535156 L 164.3125 283.230469 C 164.3125 283.707031 164.359375 284.179688 164.453125 284.648438 C 164.542969 285.117188 164.683594 285.570312 164.863281 286.011719 C 165.046875 286.453125 165.273438 286.871094 165.535156 287.269531 C 165.800781 287.664062 166.101562 288.03125 166.441406 288.371094 C 166.777344 288.707031 167.144531 289.007812 167.542969 289.273438 C 167.9375 289.539062 168.359375 289.761719 168.800781 289.945312 C 169.238281 290.128906 169.695312 290.265625 170.164062 290.359375 C 170.628906 290.453125 171.101562 290.496094 171.582031 290.496094 C 172.058594 290.496094 172.53125 290.453125 173 290.359375 C 173.46875 290.265625 173.921875 290.128906 174.363281 289.945312 C 174.804688 289.761719 175.222656 289.539062 175.621094 289.273438 C 176.015625 289.007812 176.382812 288.707031 176.722656 288.371094 C 177.058594 288.03125 177.359375 287.664062 177.625 287.269531 C 177.890625 286.871094 178.113281 286.453125 178.296875 286.011719 C 178.480469 285.570312 178.617188 285.117188 178.710938 284.648438 C 178.804688 284.179688 178.851562 283.707031 178.851562 283.230469 L 178.851562 220.574219 L 321.132812 193.925781 L 330.429688 220.910156 C 330.6875 221.65625 331.058594 222.34375 331.539062 222.972656 C 332.019531 223.597656 332.589844 224.132812 333.246094 224.574219 C 333.902344 225.015625 334.613281 225.34375 335.378906 225.550781 C 336.140625 225.761719 336.917969 225.84375 337.707031 225.800781 C 338.496094 225.753906 339.257812 225.585938 339.992188 225.292969 C 340.730469 225 341.398438 224.597656 342.003906 224.085938 C 342.605469 223.574219 343.113281 222.980469 343.523438 222.304688 C 343.929688 221.628906 344.222656 220.902344 344.394531 220.132812 L 350.441406 193.15625 L 441.46875 269.683594 C 441.832031 269.992188 442.226562 270.257812 442.644531 270.488281 C 443.0625 270.71875 443.5 270.90625 443.953125 271.050781 C 444.410156 271.195312 444.875 271.292969 445.347656 271.34375 C 445.820312 271.398438 446.296875 271.402344 446.773438 271.363281 C 447.25 271.320312 447.714844 271.234375 448.171875 271.101562 C 448.632812 270.96875 449.074219 270.789062 449.496094 270.570312 C 449.921875 270.351562 450.316406 270.09375 450.691406 269.792969 C 451.0625 269.496094 451.402344 269.164062 451.710938 268.796875 C 452.015625 268.433594 452.285156 268.042969 452.515625 267.621094 C 452.746094 267.203125 452.933594 266.769531 453.078125 266.3125 C 453.222656 265.859375 453.320312 265.394531 453.371094 264.917969 C 453.425781 264.445312 453.429688 263.96875 453.390625 263.496094 C 453.347656 263.019531 453.261719 262.550781 453.128906 262.09375 C 452.996094 261.636719 452.816406 261.195312 452.597656 260.769531 C 452.378906 260.347656 452.117188 259.949219 451.820312 259.578125 C 451.523438 259.203125 451.191406 258.863281 450.824219 258.558594 L 350.644531 174.332031 C 350.40625 174.132812 350.15625 173.949219 349.894531 173.78125 C 349.632812 173.613281 349.363281 173.464844 349.082031 173.328125 C 348.800781 173.195312 348.511719 173.082031 348.214844 172.984375 C 347.921875 172.890625 347.621094 172.8125 347.316406 172.753906 C 347.007812 172.699219 346.703125 172.660156 346.390625 172.640625 C 346.082031 172.621094 345.769531 172.625 345.460938 172.644531 C 345.152344 172.667969 344.84375 172.707031 344.539062 172.769531 C 344.234375 172.832031 343.933594 172.910156 343.640625 173.011719 C 343.347656 173.109375 343.058594 173.226562 342.78125 173.363281 C 342.5 173.5 342.230469 173.652344 341.972656 173.824219 C 341.710938 173.996094 341.464844 174.179688 341.226562 174.382812 C 340.992188 174.585938 340.769531 174.804688 340.5625 175.035156 C 340.355469 175.265625 340.164062 175.507812 339.984375 175.765625 C 339.808594 176.019531 339.648438 176.285156 339.507812 176.5625 C 339.363281 176.835938 339.238281 177.121094 339.132812 177.414062 C 339.027344 177.707031 338.941406 178.003906 338.871094 178.308594 L 335.820312 191.917969 L 315.226562 132.09375 L 378.507812 132.734375 L 366.550781 139.929688 C 366.285156 140.089844 366.03125 140.265625 365.789062 140.460938 C 365.542969 140.652344 365.3125 140.863281 365.097656 141.082031 C 364.878906 141.304688 364.679688 141.542969 364.492188 141.789062 C 364.304688 142.039062 364.136719 142.296875 363.980469 142.566406 C 363.828125 142.839844 363.691406 143.117188 363.574219 143.40625 C 363.457031 143.691406 363.359375 143.988281 363.277344 144.285156 C 363.199219 144.585938 363.136719 144.890625 363.097656 145.199219 C 363.054688 145.507812 363.035156 145.816406 363.035156 146.128906 C 363.03125 146.4375 363.050781 146.75 363.089844 147.054688 C 363.128906 147.363281 363.1875 147.667969 363.261719 147.96875 C 363.339844 148.269531 363.4375 148.566406 363.554688 148.855469 C 363.667969 149.144531 363.800781 149.421875 363.953125 149.695312 C 364.105469 149.964844 364.273438 150.226562 364.457031 150.476562 C 364.640625 150.726562 364.839844 150.964844 365.058594 151.1875 C 365.273438 151.414062 365.5 151.621094 365.742188 151.816406 C 365.984375 152.011719 366.238281 152.191406 366.503906 152.351562 L 478.082031 220.761719 C 478.488281 221.007812 478.914062 221.210938 479.363281 221.371094 C 479.808594 221.535156 480.265625 221.648438 480.738281 221.722656 C 481.207031 221.792969 481.675781 221.816406 482.152344 221.796875 C 482.625 221.777344 483.09375 221.710938 483.554688 221.597656 C 484.015625 221.484375 484.460938 221.328125 484.894531 221.128906 C 485.324219 220.929688 485.730469 220.6875 486.113281 220.410156 C 486.5 220.128906 486.851562 219.816406 487.171875 219.464844 C 487.496094 219.117188 487.78125 218.738281 488.027344 218.335938 C 488.277344 217.929688 488.484375 217.503906 488.648438 217.058594 C 488.8125 216.613281 488.933594 216.15625 489.007812 215.6875 C 489.085938 215.21875 489.113281 214.75 489.097656 214.273438 C 489.078125 213.800781 489.015625 213.332031 488.90625 212.871094 C 488.796875 212.40625 488.644531 211.960938 488.449219 211.527344 C 488.253906 211.097656 488.015625 210.6875 487.738281 210.300781 C 487.460938 209.914062 487.152344 209.558594 486.804688 209.234375 C 486.457031 208.910156 486.082031 208.621094 485.679688 208.371094 L 429.132812 173.703125 L 524.347656 155.871094 L 524.347656 654.488281 L 429.128906 636.660156 L 485.683594 601.988281 C 486.09375 601.742188 486.476562 601.457031 486.832031 601.132812 C 487.1875 600.808594 487.507812 600.457031 487.789062 600.070312 C 488.074219 599.683594 488.316406 599.273438 488.519531 598.835938 C 488.722656 598.402344 488.882812 597.953125 488.996094 597.488281 C 489.109375 597.019531 489.175781 596.546875 489.195312 596.070312 C 489.214844 595.589844 489.191406 595.113281 489.117188 594.640625 C 489.042969 594.164062 488.921875 593.703125 488.753906 593.253906 C 488.589844 592.804688 488.382812 592.375 488.132812 591.964844 C 487.878906 591.554688 487.589844 591.175781 487.265625 590.824219 C 486.941406 590.472656 486.582031 590.15625 486.195312 589.875 C 485.804688 589.59375 485.390625 589.351562 484.957031 589.152344 C 484.519531 588.953125 484.070312 588.800781 483.601562 588.691406 C 483.132812 588.578125 482.660156 588.515625 482.183594 588.5 C 481.703125 588.484375 481.226562 588.515625 480.753906 588.59375 C 480.28125 588.671875 479.820312 588.792969 479.371094 588.964844 C 478.921875 589.132812 478.492188 589.34375 478.085938 589.597656 L 366.507812 658.007812 C 366.242188 658.171875 365.988281 658.347656 365.746094 658.542969 C 365.503906 658.738281 365.277344 658.949219 365.058594 659.171875 C 364.84375 659.398438 364.644531 659.632812 364.460938 659.882812 C 364.277344 660.132812 364.109375 660.394531 363.957031 660.664062 C 363.804688 660.9375 363.671875 661.21875 363.554688 661.507812 C 363.441406 661.792969 363.34375 662.089844 363.265625 662.390625 C 363.191406 662.691406 363.132812 662.996094 363.09375 663.304688 C 363.054688 663.613281 363.035156 663.921875 363.039062 664.234375 C 363.039062 664.542969 363.058594 664.851562 363.101562 665.160156 C 363.140625 665.46875 363.203125 665.773438 363.28125 666.074219 C 363.363281 666.375 363.460938 666.667969 363.578125 666.957031 C 363.695312 667.242188 363.832031 667.523438 363.984375 667.792969 C 364.136719 668.0625 364.308594 668.320312 364.496094 668.570312 C 364.683594 668.820312 364.882812 669.054688 365.101562 669.277344 C 365.316406 669.5 365.546875 669.707031 365.792969 669.898438 C 366.035156 670.09375 366.289062 670.269531 366.554688 670.429688 L 378.511719 677.628906 L 315.230469 678.265625 L 335.839844 618.441406 L 338.890625 632.054688 C 338.957031 632.359375 339.046875 632.65625 339.152344 632.949219 C 339.257812 633.238281 339.382812 633.523438 339.523438 633.800781 C 339.667969 634.074219 339.828125 634.34375 340.003906 634.597656 C 340.179688 634.851562 340.371094 635.097656 340.582031 635.328125 C 340.789062 635.558594 341.011719 635.773438 341.246094 635.976562 C 341.480469 636.179688 341.730469 636.367188 341.988281 636.539062 C 342.25 636.707031 342.519531 636.863281 342.796875 636.996094 C 343.078125 637.132812 343.363281 637.25 343.660156 637.351562 C 343.953125 637.449219 344.253906 637.53125 344.558594 637.59375 C 344.863281 637.652344 345.167969 637.695312 345.480469 637.714844 C 345.789062 637.738281 346.097656 637.738281 346.410156 637.71875 C 346.71875 637.703125 347.027344 637.664062 347.332031 637.605469 C 347.636719 637.550781 347.9375 637.472656 348.234375 637.375 C 348.53125 637.28125 348.816406 637.164062 349.097656 637.03125 C 349.378906 636.898438 349.652344 636.746094 349.914062 636.578125 C 350.171875 636.410156 350.421875 636.226562 350.660156 636.027344 L 450.84375 551.804688 C 451.210938 551.496094 451.542969 551.15625 451.839844 550.785156 C 452.140625 550.410156 452.398438 550.011719 452.621094 549.589844 C 452.839844 549.167969 453.019531 548.726562 453.152344 548.265625 C 453.285156 547.808594 453.375 547.339844 453.414062 546.863281 C 453.457031 546.386719 453.449219 545.914062 453.398438 545.4375 C 453.347656 544.964844 453.25 544.5 453.105469 544.042969 C 452.960938 543.585938 452.773438 543.152344 452.542969 542.730469 C 452.3125 542.3125 452.042969 541.921875 451.738281 541.554688 C 451.429688 541.191406 451.089844 540.859375 450.714844 540.558594 C 450.34375 540.261719 449.945312 540 449.519531 539.78125 C 449.097656 539.5625 448.65625 539.386719 448.195312 539.253906 C 447.738281 539.117188 447.269531 539.03125 446.792969 538.992188 C 446.316406 538.949219 445.84375 538.957031 445.367188 539.007812 C 444.894531 539.0625 444.429688 539.160156 443.972656 539.304688 C 443.515625 539.449219 443.082031 539.636719 442.660156 539.867188 C 442.242188 540.101562 441.851562 540.367188 441.488281 540.675781 L 350.460938 617.203125 L 344.414062 590.226562 C 344.242188 589.457031 343.949219 588.730469 343.539062 588.054688 C 343.128906 587.378906 342.625 586.785156 342.019531 586.273438 C 341.417969 585.761719 340.746094 585.359375 340.011719 585.066406 C 339.277344 584.773438 338.515625 584.605469 337.726562 584.558594 C 336.933594 584.515625 336.15625 584.597656 335.394531 584.808594 C 334.632812 585.015625 333.921875 585.34375 333.265625 585.785156 C 332.609375 586.226562 332.039062 586.761719 331.558594 587.386719 C 331.074219 588.015625 330.703125 588.703125 330.449219 589.449219 L 321.144531 616.4375 L 178.859375 589.789062 L 178.859375 527.039062 C 178.859375 526.5625 178.8125 526.089844 178.71875 525.621094 C 178.625 525.15625 178.488281 524.699219 178.304688 524.257812 C 178.125 523.820312 177.898438 523.398438 177.632812 523.003906 C 177.371094 522.605469 177.066406 522.238281 176.730469 521.902344 C 176.394531 521.5625 176.027344 521.261719 175.628906 520.996094 C 175.230469 520.734375 174.8125 520.507812 174.371094 520.324219 C 173.929688 520.144531 173.476562 520.003906 173.007812 519.914062 C 172.539062 519.820312 172.066406 519.773438 171.589844 519.773438 C 171.113281 519.773438 170.640625 519.820312 170.171875 519.914062 C 169.703125 520.003906 169.25 520.144531 168.808594 520.324219 C 168.367188 520.507812 167.949219 520.734375 167.550781 520.996094 C 167.15625 521.261719 166.789062 521.5625 166.449219 521.902344 C 166.113281 522.238281 165.8125 522.605469 165.546875 523.003906 C 165.28125 523.398438 165.058594 523.820312 164.875 524.257812 C 164.691406 524.699219 164.554688 525.15625 164.460938 525.621094 C 164.367188 526.089844 164.320312 526.5625 164.320312 527.039062 L 164.320312 595.832031 C 164.320312 596.253906 164.359375 596.671875 164.429688 597.085938 C 164.503906 597.5 164.609375 597.90625 164.753906 598.300781 C 164.894531 598.695312 165.070312 599.078125 165.28125 599.441406 C 165.492188 599.808594 165.730469 600.152344 166 600.476562 C 166.265625 600.800781 166.5625 601.097656 166.882812 601.371094 C 167.203125 601.644531 167.546875 601.886719 167.910156 602.101562 C 168.273438 602.3125 168.652344 602.492188 169.046875 602.640625 C 169.441406 602.789062 169.84375 602.902344 170.257812 602.976562 L 316.363281 630.339844 L 298.128906 683.273438 C 298.035156 683.546875 297.957031 683.824219 297.894531 684.105469 C 297.835938 684.386719 297.792969 684.671875 297.765625 684.960938 C 297.738281 685.246094 297.726562 685.535156 297.734375 685.824219 C 297.742188 686.109375 297.765625 686.398438 297.808594 686.683594 C 297.847656 686.96875 297.90625 687.25 297.980469 687.527344 C 298.058594 687.808594 298.148438 688.082031 298.253906 688.347656 C 298.363281 688.617188 298.484375 688.875 298.625 689.128906 C 298.761719 689.382812 298.914062 689.625 299.082031 689.859375 C 299.25 690.097656 299.429688 690.320312 299.625 690.53125 C 299.820312 690.746094 300.027344 690.949219 300.242188 691.136719 C 300.460938 691.324219 300.691406 691.5 300.929688 691.660156 C 301.167969 691.824219 301.417969 691.96875 301.671875 692.101562 C 301.929688 692.234375 302.191406 692.351562 302.460938 692.449219 C 302.734375 692.550781 303.007812 692.636719 303.289062 692.703125 C 303.570312 692.773438 303.851562 692.824219 304.140625 692.855469 C 304.425781 692.890625 304.710938 692.910156 305 692.910156 L 305.074219 692.910156 L 404.3125 691.90625 C 405.101562 691.898438 405.871094 691.765625 406.621094 691.507812 C 407.367188 691.246094 408.054688 690.875 408.679688 690.390625 C 409.308594 689.910156 409.839844 689.339844 410.28125 688.679688 C 410.722656 688.023438 411.042969 687.3125 411.253906 686.550781 C 411.460938 685.785156 411.542969 685.007812 411.496094 684.21875 C 411.449219 683.429688 411.28125 682.667969 410.984375 681.933594 C 410.691406 681.199219 410.289062 680.53125 409.773438 679.929688 C 409.261719 679.324219 408.667969 678.820312 407.988281 678.414062 L 384.304688 664.148438 L 410.664062 647.992188 L 530.285156 670.390625 C 530.691406 670.464844 531.101562 670.503906 531.511719 670.507812 C 531.550781 670.507812 531.585938 670.515625 531.625 670.515625 C 531.828125 670.515625 532.035156 670.507812 532.238281 670.492188 L 663.019531 659.347656 C 663.46875 659.308594 663.914062 659.226562 664.347656 659.109375 C 664.78125 658.988281 665.203125 658.828125 665.609375 658.628906 C 666.011719 658.429688 666.394531 658.195312 666.757812 657.925781 C 667.117188 657.652344 667.453125 657.351562 667.757812 657.019531 C 668.0625 656.6875 668.335938 656.328125 668.574219 655.945312 C 668.8125 655.5625 669.011719 655.164062 669.175781 654.742188 C 669.339844 654.320312 669.464844 653.890625 669.546875 653.445312 C 669.628906 653.003906 669.671875 652.554688 669.671875 652.101562 L 669.671875 158.261719 C 669.671875 157.8125 669.628906 157.363281 669.546875 156.921875 C 669.464844 156.476562 669.339844 156.042969 669.175781 155.625 C 669.011719 155.203125 668.808594 154.800781 668.570312 154.417969 C 668.332031 154.035156 668.058594 153.675781 667.753906 153.34375 C 667.449219 153.011719 667.113281 152.710938 666.753906 152.441406 C 666.390625 152.167969 666.007812 151.933594 665.601562 151.738281 C 665.195312 151.539062 664.777344 151.378906 664.339844 151.257812 C 663.90625 151.136719 663.464844 151.058594 663.011719 151.019531 Z M 538.882812 655.332031 L 538.882812 155.03125 L 572.96875 157.9375 C 572.453125 174.828125 567.539062 183.3125 561.886719 193.039062 C 555.746094 203.605469 548.789062 215.582031 548.789062 238.386719 C 548.789062 261.195312 555.746094 273.167969 561.886719 283.734375 C 567.859375 294.011719 573.019531 302.890625 573.019531 321.78125 C 573.019531 340.667969 567.859375 349.546875 561.886719 359.824219 C 555.746094 370.394531 548.789062 382.367188 548.789062 405.175781 C 548.789062 427.980469 555.746094 439.957031 561.886719 450.523438 C 567.859375 460.804688 573.019531 469.679688 573.019531 488.574219 C 573.019531 507.464844 567.859375 516.34375 561.886719 526.621094 C 555.746094 537.1875 548.789062 549.164062 548.789062 571.972656 C 548.789062 594.78125 555.746094 606.757812 561.886719 617.324219 C 567.539062 627.050781 572.453125 635.539062 572.96875 652.429688 Z M 587.476562 651.191406 C 586.683594 631.0625 580.207031 619.921875 574.457031 610.019531 C 568.484375 599.742188 563.324219 590.863281 563.324219 571.96875 C 563.324219 553.078125 568.484375 544.199219 574.457031 533.921875 C 580.597656 523.355469 587.554688 511.378906 587.554688 488.570312 C 587.554688 465.761719 580.597656 453.785156 574.457031 443.21875 C 568.484375 432.941406 563.324219 424.0625 563.324219 405.171875 C 563.324219 386.28125 568.484375 377.40625 574.457031 367.125 C 580.597656 356.558594 587.554688 344.582031 587.554688 321.777344 C 587.554688 298.96875 580.597656 286.996094 574.457031 276.429688 C 568.484375 266.152344 563.324219 257.273438 563.324219 238.386719 C 563.324219 219.496094 568.484375 210.617188 574.457031 200.339844 C 580.210938 190.4375 586.683594 179.300781 587.476562 159.171875 L 626.191406 162.472656 C 625.507812 178.390625 620.691406 186.589844 615.171875 195.957031 C 609.023438 206.390625 602.050781 218.214844 602.050781 240.75 C 602.050781 263.285156 609.023438 275.113281 615.171875 285.546875 C 621.132812 295.65625 626.28125 304.390625 626.28125 322.960938 C 626.28125 341.527344 621.132812 350.261719 615.171875 360.375 C 609.023438 370.808594 602.050781 382.636719 602.050781 405.171875 C 602.050781 427.707031 609.023438 439.535156 615.171875 449.96875 C 621.132812 460.082031 626.28125 468.816406 626.28125 487.386719 C 626.28125 505.957031 621.132812 514.691406 615.171875 524.804688 C 609.023438 535.242188 602.050781 547.066406 602.050781 569.601562 C 602.050781 592.140625 609.023438 603.96875 615.171875 614.402344 C 620.695312 623.769531 625.511719 631.96875 626.191406 647.890625 Z M 655.125 645.425781 L 640.675781 646.65625 C 639.695312 627.433594 633.355469 616.628906 627.695312 607.023438 C 621.734375 596.910156 616.589844 588.175781 616.589844 569.605469 C 616.589844 551.03125 621.734375 542.296875 627.695312 532.183594 C 633.847656 521.75 640.820312 509.921875 640.820312 487.386719 C 640.820312 464.851562 633.851562 453.027344 627.695312 442.589844 C 621.734375 432.476562 616.589844 423.742188 616.589844 405.171875 C 616.589844 386.601562 621.734375 377.867188 627.695312 367.753906 C 633.847656 357.320312 640.820312 345.496094 640.820312 322.960938 C 640.820312 300.421875 633.847656 288.597656 627.695312 278.164062 C 621.734375 268.054688 616.589844 259.320312 616.589844 240.75 C 616.589844 222.179688 621.734375 213.449219 627.695312 203.335938 C 633.355469 193.734375 639.699219 182.929688 640.675781 163.707031 L 655.128906 164.9375 Z M 655.125 645.425781 " fill-opacity="1" fill-rule="nonzero"/></g><g clip-path="url(#ad36deb392)"><path fill="#f2b10f" d="M 303.519531 346.179688 L 255.125 329.921875 L 274.1875 324.828125 L 313.246094 341.722656 L 320.15625 344.710938 L 313.859375 348.484375 L 308.886719 351.445312 L 349.488281 365.011719 L 355.910156 367.167969 L 349.613281 369.175781 L 336.96875 373.214844 L 368.945312 387.246094 L 332.558594 374.269531 L 329.296875 373.117188 L 332.582031 371.695312 L 342.238281 367.558594 L 299.5 355.707031 L 292.199219 353.671875 L 298.667969 349.386719 Z M 329.835938 302.496094 L 290.800781 269.582031 L 310.40625 271.859375 L 340.519531 301.90625 L 345.839844 307.222656 L 338.585938 308.394531 L 332.851562 309.328125 L 365.636719 336.875 L 370.832031 341.234375 L 364.242188 340.792969 L 350.984375 339.886719 L 375.5625 364.691406 L 346.5 339.273438 L 343.902344 336.996094 L 347.480469 336.898438 L 357.992188 336.582031 L 322.609375 309.867188 L 316.554688 305.3125 L 324.128906 303.71875 Z M 324.570312 487.644531 L 288.570312 510.34375 L 268.945312 508.261719 L 314.253906 484.753906 L 308.960938 482.332031 L 301.925781 479.074219 L 308.835938 475.941406 L 349.21875 457.671875 L 339.027344 455.050781 L 335.570312 454.171875 L 338.609375 452.53125 L 372.574219 434.140625 L 343.117188 452.921875 L 356.253906 454.953125 L 362.796875 455.957031 L 356.769531 459.066406 L 318.738281 478.707031 L 324.128906 480.886719 L 330.941406 483.628906 Z M 380.316406 460.878906 L 356.914062 486.789062 L 370.121094 485.269531 L 376.691406 484.511719 L 371.714844 489.113281 L 340.226562 518.132812 L 345.984375 518.792969 L 353.289062 519.648438 L 348.214844 525.207031 L 319.519531 556.652344 L 300.039062 559.832031 L 337.484375 525.160156 L 331.75 524.230469 L 324.101562 522.980469 L 329.933594 518.132812 L 364.019531 489.800781 L 353.507812 489.972656 L 349.929688 490.042969 L 352.429688 487.644531 Z M 380.316406 460.878906 " fill-opacity="1" fill-rule="nonzero"/></g><g clip-path="url(#edf678d0b1)"><path fill="#f2b10f" d="M 129.425781 336.285156 L 81.027344 320.027344 L 100.09375 314.933594 L 139.152344 331.828125 L 146.0625 334.816406 L 139.765625 338.589844 L 134.792969 341.550781 L 175.394531 355.117188 L 181.816406 357.273438 L 175.515625 359.28125 L 162.875 363.320312 L 194.851562 377.351562 L 158.460938 364.375 L 155.203125 363.222656 L 158.488281 361.800781 L 168.140625 357.664062 L 125.40625 345.8125 L 118.105469 343.78125 L 124.574219 339.496094 Z M 155.742188 292.601562 L 116.707031 259.691406 L 136.308594 261.96875 L 166.425781 292.011719 L 171.742188 297.328125 L 164.492188 298.503906 L 158.757812 299.433594 L 191.542969 326.980469 L 196.738281 331.339844 L 190.148438 330.898438 L 176.890625 329.992188 L 201.46875 354.800781 L 172.40625 329.382812 L 169.808594 327.105469 L 173.386719 327.003906 L 183.898438 326.6875 L 148.511719 299.972656 L 142.460938 295.417969 L 150.03125 293.824219 Z M 150.472656 477.75 L 114.476562 500.449219 L 94.847656 498.367188 L 140.15625 474.859375 L 134.863281 472.4375 L 127.832031 469.179688 L 134.742188 466.046875 L 175.125 447.777344 L 164.929688 445.15625 L 161.476562 444.277344 L 164.515625 442.636719 L 198.476562 424.246094 L 169.023438 443.027344 L 182.15625 445.058594 L 188.699219 446.0625 L 182.671875 449.171875 L 144.640625 468.8125 L 150.03125 470.992188 L 156.84375 473.734375 Z M 206.222656 450.984375 L 182.820312 476.894531 L 196.027344 475.375 L 202.59375 474.617188 L 197.621094 479.21875 L 166.132812 508.238281 L 171.890625 508.898438 L 179.191406 509.753906 L 174.121094 515.3125 L 145.425781 546.757812 L 125.945312 549.941406 L 163.386719 515.265625 L 157.652344 514.335938 L 150.007812 513.085938 L 155.839844 508.238281 L 189.925781 479.90625 L 179.414062 480.078125 L 175.835938 480.152344 L 178.335938 477.75 Z M 206.222656 450.984375 " fill-opacity="1" fill-rule="nonzero"/></g><g clip-path="url(#e50d273998)"><path fill="#f2b10f" d="M 453.425781 336.285156 L 405.027344 320.027344 L 424.09375 314.933594 L 463.152344 331.828125 L 470.0625 334.816406 L 463.765625 338.589844 L 458.792969 341.550781 L 499.394531 355.117188 L 505.816406 357.273438 L 499.515625 359.28125 L 486.875 363.320312 L 518.851562 377.351562 L 482.460938 364.375 L 479.203125 363.222656 L 482.488281 361.800781 L 492.140625 357.664062 L 449.40625 345.8125 L 442.105469 343.78125 L 448.574219 339.496094 Z M 479.742188 292.601562 L 440.707031 259.691406 L 460.308594 261.96875 L 490.425781 292.011719 L 495.742188 297.328125 L 488.492188 298.503906 L 482.757812 299.433594 L 515.542969 326.980469 L 520.738281 331.339844 L 514.148438 330.898438 L 500.890625 329.992188 L 525.46875 354.800781 L 496.40625 329.382812 L 493.808594 327.105469 L 497.386719 327.003906 L 507.898438 326.6875 L 472.511719 299.972656 L 466.460938 295.417969 L 474.03125 293.824219 Z M 474.472656 477.75 L 438.476562 500.449219 L 418.847656 498.367188 L 464.15625 474.859375 L 458.863281 472.4375 L 451.832031 469.179688 L 458.742188 466.046875 L 499.125 447.777344 L 488.929688 445.15625 L 485.476562 444.277344 L 488.515625 442.636719 L 522.476562 424.246094 L 493.023438 443.027344 L 506.15625 445.058594 L 512.699219 446.0625 L 506.671875 449.171875 L 468.640625 468.8125 L 474.03125 470.992188 L 480.84375 473.734375 Z M 530.222656 450.984375 L 506.820312 476.894531 L 520.027344 475.375 L 526.59375 474.617188 L 521.621094 479.21875 L 490.132812 508.238281 L 495.890625 508.898438 L 503.191406 509.753906 L 498.121094 515.3125 L 469.425781 546.757812 L 449.945312 549.941406 L 487.386719 515.265625 L 481.652344 514.335938 L 474.007812 513.085938 L 479.839844 508.238281 L 513.925781 479.90625 L 503.414062 480.078125 L 499.835938 480.152344 L 502.335938 477.75 Z M 530.222656 450.984375 " fill-opacity="1" fill-rule="nonzero"/></g><path stroke-linecap="round" transform="matrix(0.429784, -0.614643, 0.614643, 0.429784, 168.606264, 720.402584)" fill="none" stroke-linejoin="miter" d="M 19.999222 20.002648 L 1034.270315 20.003097 " stroke="#ff3131" stroke-width="40" stroke-opacity="1" stroke-miterlimit="4"/></svg>